<?xml version="1.0" encoding="utf-8"?>
<!-- Generator: Adobe Illustrator 16.0.0, SVG Export Plug-In . SVG Version: 6.00 Build 0)  -->
<!DOCTYPE svg PUBLIC "-//W3C//DTD SVG 1.1//EN" "http://www.w3.org/Graphics/SVG/1.1/DTD/svg11.dtd">
<svg version="1.1" id="Layer_1" xmlns="http://www.w3.org/2000/svg" xmlns:xlink="http://www.w3.org/1999/xlink" x="0px" y="0px"
	 width="1522px" height="818px" viewBox="0 0 1522 818" enable-background="new 0 0 1522 818" xml:space="preserve">
<g>
	<path fill="#F2F3F4" d="M1508.598,721.996c-1.92,1.917-7.127,6.138-11.57,9.379l-64.937,47.367
		c-4.443,3.241-12.524,5.191-17.956,4.333l-82.607-13.054c-5.432-0.858-14.312-2.326-19.731-3.261l-61.07-10.539
		c-5.42-0.935-13.916,0.237-18.88,2.606l-61.694,29.436c-4.964,2.369-13.006,2.207-17.871-0.358l-32.427-17.102
		c-4.865-2.565-13.113-3.237-18.329-1.493l-59.185,19.798c-5.216,1.744-13.274,0.748-17.908-2.215l-38.568-24.661
		c-4.634-2.963-12.83-4.469-18.215-3.347l-167.161,34.842c-5.385,1.122-14.048,0.582-19.251-1.199l-133.462-45.703
		c-5.204-1.781-13.868-2.328-19.253-1.214L374.434,798.17c-5.386,1.114-13.407-0.655-17.824-3.933l-45.51-33.758
		c-4.417-3.277-12.524-5.691-18.014-5.364l-77.767,4.621c-5.49,0.327-13.438-2.288-17.663-5.811l-58.57-48.836
		c-4.224-3.522-12.145-5.838-17.601-5.146l-76.684,9.721c-5.456,0.691-11.272-3.034-12.925-8.28l-18.873-59.92
		c-1.652-5.246,1.125-11.328,6.171-13.515l111.529-48.342c5.046-2.187,13.648-3.482,19.115-2.879l148.467,16.391
		c5.467,0.604,14.152-0.484,19.301-2.417l123.595-46.405c5.149-1.933,13.715-2.376,19.036-0.983l180.46,47.211
		c5.321,1.393,13.778,0.685,18.794-1.571l97.957-44.068c5.016-2.256,13.528-3.2,18.917-2.097l148.609,30.42
		c5.389,1.104,14.107,0.713,19.375-0.866l146.012-43.787c5.268-1.58,13.91-1.654,19.204-0.164l141.74,39.885
		c5.294,1.49,14.09,3.281,19.545,3.979l157.284,20.148c5.455,0.698,12.974,4.575,16.707,8.614l53.496,57.877
		c3.733,4.039,7.384,11.805,8.112,17.256l4.335,32.449C1511.494,714.051,1510.519,720.08,1508.598,721.996z"/>
</g>
<g>
	<path fill="#3BB3DA" d="M1331.943,585.508l-57.242-107.297c-2.589-4.853-8.225-5.988-12.541-2.58l-56.391,44.55
		c-4.316,3.408-10.608,2.656-13.986-1.685l-43.068-55.359c-3.378-4.341-9.584-4.994-13.795-1.455l-52.404,44.053
		c-4.211,3.539-10.999,3.423-15.086-0.257l-57.826-52.073c-4.087-3.681-10.121-3.086-13.41,1.323l-58.108,77.888
		c-3.289,4.408-9.578,5.313-13.977,2.012l-10.543-7.915c-4.398-3.302-11.663-3.394-16.144-0.204l-9.025,6.426
		c-4.48,3.189-10.552,1.996-13.491-2.652l-25.304-40.016c-2.939-4.648-8.458-5.202-12.263-1.23l-19.106,19.945
		c-3.805,3.972-10.26,4.208-14.344,0.524l-74.828-67.479c-4.084-3.684-10.345-3.271-13.912,0.914l-51.086,59.959
		c-3.567,4.186-9.815,4.584-13.884,0.884l-55.369-50.343c-4.069-3.7-10.461-3.43-14.204,0.601l-26.033,28.034
		c-3.743,4.03-10.953,5.585-16.023,3.453l-15.422-6.48c-5.07-2.132-12.24-0.54-15.934,3.535l-33.849,37.357
		c-3.693,4.075-9.812,4.146-13.597,0.154l-22.23-23.436c-3.785-3.991-9.811-3.839-13.39,0.337l-31.707,36.991
		c-3.579,4.176-9.295,4.061-12.703-0.258l-28.786-36.477c-3.407-4.317-10.373-6.179-15.479-4.136l-19.376,7.751
		c-5.106,2.043-12.159,0.252-15.672-3.98l-39.994-48.173c-3.513-4.232-8.302-3.622-10.643,1.355l-59.513,126.574
		c-2.34,4.978-4.234,13.55-4.209,19.05l-0.034,5.14c0.025,5.5-0.012,11.921-0.012,14.269c0,2.349,0,3.898,0,3.898"/>
</g>
<g>
	<path fill="#0D2D44" d="M136.063,635.913l63.515-119.152c2.588-4.853,8.222-6.034,12.539-2.627l63.688,50.289
		c4.317,3.407,10.608,2.645,13.985-1.696l48.671-62.567c3.377-4.341,9.584-4.997,13.794-1.458l59.261,49.813
		c4.21,3.539,10.998,3.423,15.085-0.258l65.183-58.699c4.087-3.681,10.122-3.086,13.411,1.323l65.201,87.395
		c3.289,4.409,9.578,5.313,13.977,2.012l13.23-9.932c4.398-3.302,11.663-3.394,16.144-0.204l11.587,8.25
		c4.48,3.189,10.552,1.996,13.491-2.652l28.947-45.777c2.939-4.648,8.458-5.203,12.262-1.23l22.443,23.428
		c3.805,3.971,10.259,4.207,14.344,0.523l83.904-75.666c4.084-3.684,10.344-3.271,13.911,0.914l57.57,67.568
		c3.567,4.188,9.814,4.585,13.884,0.885l62.473-56.801c4.069-3.7,10.461-3.43,14.203,0.601l30.046,32.355
		c3.742,4.03,10.953,5.585,16.023,3.454l18.85-7.922c5.07-2.132,12.24-0.54,15.934,3.535l38.635,42.639
		c3.693,4.075,9.812,4.146,13.597,0.155l25.874-27.278c3.785-3.99,9.811-3.838,13.39,0.338l36.233,42.272
		c3.579,4.176,9.296,4.061,12.703-0.257L1217,537.727c3.407-4.318,10.373-6.18,15.48-4.137l23.216,9.287
		c5.107,2.043,12.159,0.252,15.673-3.98l45.336-54.606c3.514-4.232,8.303-3.622,10.643,1.355l66.398,141.218
		c2.34,4.978,4.234,13.55,4.209,19.05l0.028,7.685c-0.025,5.5,0.017,12.115,0.017,14.701s0,4.701,0,4.701"/>
</g>
<g>
	<path fill="#F2F3F4" d="M1393.88,642.5l-60.187-108.181c-2.675-4.806-8.45-6.022-12.836-2.704l-59.722,45.197
		c-4.386,3.318-10.81,2.54-14.275-1.73l-45.489-56.053c-3.466-4.271-9.806-4.941-14.089-1.49l-55.499,44.718
		c-4.283,3.451-11.193,3.334-15.356-0.26l-61.151-52.789c-4.163-3.594-10.333-2.983-13.711,1.357l-61.255,78.707
		c-3.378,4.341-9.794,5.263-14.259,2.051l-11.619-8.362c-4.465-3.212-11.834-3.304-16.377-0.203l-10.052,6.86
		c-4.543,3.101-10.737,1.882-13.767-2.71l-26.766-40.572c-3.029-4.592-8.688-5.164-12.575-1.274l-20.438,20.452
		c-3.888,3.891-10.473,4.131-14.634,0.533l-78.993-68.286c-4.161-3.597-10.555-3.177-14.208,0.935l-53.944,60.69
		c-3.654,4.111-10.036,4.518-14.182,0.904l-58.567-51.046c-4.146-3.613-10.67-3.338-14.497,0.612l-27.693,28.585
		c-3.827,3.95-11.132,5.501-16.233,3.445l-16.985-6.842c-5.102-2.056-12.367-0.467-16.145,3.529l-35.884,37.96
		c-3.778,3.996-10.035,4.067-13.903,0.158l-23.71-23.96c-3.869-3.91-10.033-3.754-13.699,0.346l-33.606,37.586
		c-3.666,4.1-9.526,3.98-13.021-0.267l-30.504-37.053c-3.496-4.247-10.558-6.109-15.693-4.141l-21.151,8.11
		c-5.135,1.969-12.283,0.179-15.884-3.979l-42.292-48.83c-3.601-4.157-9.477-4.144-13.058,0.031L183,589.596"/>
</g>
<g>
	<path fill="#F2F3F4" d="M135.006,621c1.653-1.65,6.642-5.652,11.085-8.894l53.653-39.137c4.443-3.241,12.524-5.191,17.957-4.333
		l68.364,10.803c5.433,0.858,14.312,2.326,19.732,3.261l49.83,8.6c5.42,0.935,13.916-0.237,18.88-2.606l50.599-24.141
		c4.964-2.369,13.006-2.207,17.871,0.358l25.455,13.424c4.865,2.565,13.113,3.237,18.329,1.493l48.311-16.16
		c5.216-1.745,13.274-0.749,17.908,2.214l30.857,19.731c4.634,2.963,12.83,4.469,18.214,3.347l141.179-29.427
		c5.384-1.122,14.047-0.582,19.25,1.199l112.26,38.442c5.203,1.781,13.867,2.328,19.254,1.214L1110,555.707
		c5.387-1.114,13.407,0.655,17.824,3.933l36.943,27.402c4.417,3.277,12.523,5.691,18.014,5.364l64.168-3.813
		c5.49-0.327,13.438,2.288,17.663,5.811l48.283,40.259c4.225,3.522,12.145,5.839,17.602,5.146l63.252-8.019
		c5.456-0.691,11.272,3.034,12.925,8.28L1422.086,689c1.652,5.246-1.125,11.328-6.171,13.515l-93.459,40.509
		c-5.046,2.187-13.647,3.482-19.114,2.879l-125.043-13.805c-5.467-0.604-14.152,0.484-19.302,2.417l-103.792,38.971
		c-5.149,1.933-13.716,2.376-19.037,0.983l-152.657-39.938c-5.321-1.393-13.778-0.686-18.795,1.571l-81.789,36.795
		c-5.017,2.257-13.528,3.2-18.917,2.097l-125.206-25.629c-5.388-1.104-14.107-0.713-19.375,0.867l-123.029,36.895
		c-5.268,1.58-13.91,1.654-19.205,0.164l-119.339-33.582c-5.294-1.49-14.089-3.281-19.545-3.979l-132.64-16.991
		c-5.456-0.699-12.974-4.575-16.707-8.614l-44.164-47.78c-3.733-4.039-7.383-11.805-8.112-17.256l-3.363-25.176
		C132.596,628.461,133.353,622.65,135.006,621z"/>
</g>
<g>
	<path fill="#F2F3F4" d="M237,596.908c0,11-8.49,22.469-19.068,25.486l-77.707,22.189c-10.578,3.018-13.765,12.667-7.134,21.442
		l19.478,25.748c6.631,8.775,20.073,20.069,29.856,25.098l44.838,23.038c9.784,5.028,26.719,8.001,37.63,6.607l91.271-11.658
		c10.912-1.394,28.586-0.414,39.277,2.178l99.131,24.03c10.69,2.592,28.189,2.614,38.887,0.05l112.972-27.08
		c10.697-2.564,28.406-3.779,39.353-2.701l159.909,15.755c10.946,1.078,28.898,1.672,39.893,1.317l204.563-6.583
		c10.994-0.354,28.868,0.829,39.72,2.628l43.603,7.23c10.852,1.8,28.138,0.06,38.413-3.867l86.212-32.946
		c10.275-3.927,26.488-11.619,36.029-17.094l50.206-28.811c9.541-5.475,10.012-15.17,1.048-21.544l-52.302-37.191
		c-8.964-6.375-24.081-16.111-33.594-21.636l-50.313-29.224c-9.513-5.524-26.287-9.68-37.278-9.232l-186.094,7.564
		c-10.991,0.447-28.955,0.1-39.921-0.771l-250.318-19.887c-10.965-0.871-28.801-0.023-39.634,1.883l-133.255,23.455
		c-10.833,1.906-28.682,2.946-39.664,2.31l-154.208-8.936c-10.981-0.637-28.911-0.159-39.843,1.06l-71.913,8.002
		C246.109,566.037,237,576.035,237,587.035V596.908z"/>
</g>
<g>
	<path fill="#F2F3F4" d="M402,559.39c0,11-8.49,23.292-18.728,27.315l-42.527,16.691c-10.238,4.023-14.314,15.206-9.024,24.851
		l10.621,19.39c5.29,9.645,16.956,22.735,25.935,29.092l22.476,15.916c8.978,6.356,25.186,9.997,36.019,8.09l50.376-8.865
		c10.833-1.906,28.233-0.615,38.667,2.869l56.669,18.926c10.434,3.485,27.516,3.514,37.961,0.064l66.134-21.842
		c10.445-3.449,27.909-5.061,38.81-3.581l97.279,13.205c10.9,1.479,28.81,2.292,39.799,1.805l127.687-5.662
		c10.989-0.487,28.754,1.119,39.479,3.568l17.948,4.102c10.724,2.449,27.462,0.261,37.195-4.863l49.324-25.971
		c9.733-5.124,24.758-14.899,33.387-21.721l26.825-21.209c8.629-6.821,9.261-18.701,1.403-26.399l-29.632-29.029
		c-7.857-7.698-21.313-19.619-29.901-26.492l-26.975-21.586c-8.588-6.873-24.602-11.993-35.584-11.378l-115.04,6.443
		c-10.982,0.615-28.915,0.139-39.85-1.058l-159.181-17.424c-10.935-1.196-28.628-0.055-39.318,2.537l-79.488,19.275
		c-10.69,2.593-28.408,3.998-39.373,3.122l-93.221-7.441c-10.965-0.876-28.832-0.225-39.705,1.445l-36.792,5.671
		C410.782,530.916,402,541.283,402,552.283V559.39z"/>
</g>
<path fill="#FFCC00" d="M956.988,214.002c0,98.11-79.541,177.644-177.649,177.644c-98.109,0-177.642-79.533-177.642-177.644
	c0-98.115,79.532-177.643,177.642-177.643C877.447,36.359,956.988,115.887,956.988,214.002z"/>
<g>
	<g>
		<path fill="#F2F3F4" d="M966.396,426.688c0,0-0.225-1.005-0.5-2.231c-0.274-1.229-1.311-4.331-2.303-6.896l-120.097-310.44
			c-0.992-2.564-2.951-2.728-4.354-0.362l-55.73,94.007c-1.402,2.365-3.602,2.312-4.887-0.119l-23.91-45.228
			c-1.285-2.431-3.313-2.393-4.507,0.085L618.887,427.877"/>
	</g>
	<g>
		<path fill="#3BB3DA" d="M874.483,187.375c0.99,2.565,0.233,6.278-1.682,8.252l-10.035,10.336c-1.915,1.974-4.498,1.58-5.74-0.873
			l-4.411-8.719c-1.242-2.453-3.967-2.998-6.057-1.209l-2.657,2.275c-2.09,1.788-5.296,1.571-7.127-0.48l-9.341-10.477
			c-1.831-2.052-4.758-1.994-6.506,0.129l-15.691,18.996c-1.748,2.123-3.236,1.61-3.236-1.14V188.08c0-2.75-1.84-3.793-4.16-2.317
			l-4.726,3.023c-2.32,1.476-3.057,0.747-1.654-1.618l47.677-80.409c1.402-2.365,3.363-2.202,4.354,0.363L874.483,187.375z"/>
	</g>
	<g opacity="0.1">
		<path d="M839.144,106.759c1.402-2.365,2.381-2.058,2.175,0.686l-8.339,110.914c-0.206,2.743-0.977,7.154-1.711,9.805
			l-22.963,82.83c-0.734,2.65-1.697,7.039-2.139,9.753l-16.439,101.008c-0.441,2.714-1.161,2.713-1.598-0.002l-11.602-72.001
			c-0.437-2.715-1.48-7.079-2.317-9.699L743.116,242.8c-0.838-2.62-2.07-6.945-2.74-9.612l-8.268-32.949
			c-0.669-2.667-0.24-6.877,0.954-9.354l17.047-35.381c1.194-2.478,3.222-2.516,4.507-0.085l23.91,45.228
			c1.285,2.431,3.484,2.484,4.887,0.119L839.144,106.759z"/>
	</g>
</g>
<g>
	<g>
		<path fill="#122530" d="M518.523,570c-2.75,0-4.221-2.091-3.27-4.671l153.754-416.743c0.952-2.58,2.509-2.574,3.461,0.005
			l153.754,416.735c0.951,2.58-0.52,4.674-3.27,4.674H518.523z"/>
	</g>
	<g>
		<path fill="#122530" d="M428.428,570c-2.75,0-4.221-2.091-3.27-4.671l113.983-308.94c0.952-2.58,2.509-2.575,3.461,0.005
			l113.984,308.933c0.952,2.58-0.52,4.674-3.27,4.674H428.428z"/>
	</g>
	<g>
		<path fill="#3BB3DA" d="M500.61,360.838c-0.952,2.58,0.029,6.094,2.181,7.807l7.377,5.876c2.151,1.714,5.716,1.772,7.923,0.131
			l8.253-6.138c2.207-1.642,6.24-2.672,8.963-2.291l11.115,1.558c2.724,0.381,5.614-1.457,6.424-4.085l4.114-13.349
			c0.81-2.628,3.627-4.13,6.26-3.336l9.626,2.899c2.633,0.793,4.009-0.669,3.057-3.248l-33.302-90.264
			c-0.952-2.58-2.509-2.58-3.461,0L500.61,360.838z"/>
	</g>
	<g opacity="0.3">
		<path d="M542.002,256.398c-0.952-2.58-1.973-2.454-2.269,0.279l-9.427,86.974c-0.296,2.733-0.065,7.17,0.513,9.858l19.028,87.954
			c0.578,2.688,1.152,7.138,1.152,9.888v58.717c0,2.75,0.56,7.151,1.366,9.78l13.884,45.392c0.807,2.629,3.667,4.76,6.417,4.76
			h80.024c2.75,0,4.221-2.091,3.27-4.671L542.002,256.398z"/>
	</g>
	<g>
		<path fill="#3BB3DA" d="M628.307,259.785c-0.946,2.582-0.468,6.565,1.06,8.852l5.83,8.718c1.528,2.286,4.822,3.213,7.318,2.06
			l9.524-4.399c2.497-1.153,6.638-1.287,9.204-0.298l13.193,5.09c2.566,0.989,5.977-0.029,7.581-2.263l6.351-8.665
			c1.604-2.232,5.166-3.879,7.916-3.879h14.432c2.75,0,4.214-2.291,3.254-4.867l-41.487-111.451
			c-0.96-2.577-2.519-2.617-3.465-0.035L628.307,259.785z"/>
	</g>
	<g opacity="0.3">
		<path d="M672.131,152.561c-0.952-2.58-1.973-2.454-2.269,0.279l-12.813,118.209c-0.296,2.733-0.065,7.17,0.513,9.858
			l25.546,119.454c0.579,2.688,0.892,7.138,0.892,9.888v80.862c0,2.75,0.82,7.151,1.627,9.78l19.452,63.229
			c0.807,2.629,3.797,4.879,6.547,4.879h109.037c2.75,0,4.222-2.21,3.27-4.79L672.131,152.561z"/>
	</g>
	<g>
		<path fill="#122530" d="M761.42,568.803c0,0,0.233-1.046,0.519-2.324c0.286-1.279,1.331-4.424,2.323-6.988l125.26-323.786
			c0.992-2.564,2.951-2.728,4.354-0.362l58.271,98.29c1.402,2.365,3.602,2.312,4.887-0.119l25.104-47.487
			c1.285-2.431,3.313-2.393,4.507,0.085l136.789,283.931"/>
	</g>
	<g>
		<path fill="#3BB3DA" d="M857.093,319.695c-0.99,2.565-0.233,6.278,1.682,8.252l10.744,11.068c1.915,1.974,4.498,1.58,5.74-0.873
			l4.783-9.455c1.242-2.453,3.967-2.998,6.057-1.21l3.087,2.643c2.09,1.788,5.296,1.571,7.127-0.48l10.01-11.227
			c1.83-2.052,4.757-1.994,6.505,0.129l16.772,20.111c1.748,2.123,3.4,1.61,3.4-1.14v-17.486c0-2.75,1.676-3.793,3.996-2.317
			l5.194,3.374c2.32,1.476,3.016,0.747,1.613-1.618l-49.901-84.124c-1.402-2.365-3.374-2.202-4.364,0.363L857.093,319.695z"/>
	</g>
	<g opacity="0.3">
		<path d="M893.875,235.342c-1.402-2.365-2.381-2.057-2.175,0.686l8.719,115.959c0.206,2.742,0.977,7.154,1.711,9.805l24.033,86.688
			c0.734,2.65,1.697,7.039,2.14,9.753l17.191,105.635c0.442,2.715,1.162,2.714,1.6-0.001l12.152-75.418
			c0.438-2.715,1.48-7.079,2.317-9.699l32.52-101.71c0.837-2.619,2.07-6.945,2.739-9.612l8.713-34.728
			c0.669-2.667,0.24-6.877-0.953-9.354l-17.938-37.234c-1.193-2.478-3.222-2.516-4.507-0.085l-25.104,47.487
			c-1.285,2.431-3.484,2.484-4.887,0.119L893.875,235.342z"/>
	</g>
	<g>
		<path fill="#162B35" d="M866.081,570c2.75,0,4.222-2.091,3.27-4.671l-75.298-204.085c-0.951-2.58-2.51-2.575-3.461,0.005
			l-75.298,204.077c-0.952,2.58,0.52,4.674,3.27,4.674H866.081z"/>
	</g>
	<g>
		<path fill="#3BB3DA" d="M818.753,428.203c0.952,2.579-0.029,6.092-2.181,7.806l-2.37,1.888c-2.151,1.713-5.717,1.772-7.923,0.132
			l-2.893-2.151c-2.206-1.641-6.24-2.672-8.964-2.29l-4.19,0.587c-2.724,0.381-5.615-1.457-6.425-4.085l-1.79-5.805
			c-0.81-2.628-3.627-4.129-6.26-3.335l-3.301,0.994c-2.633,0.794-4.009-0.668-3.057-3.248l21.191-57.441
			c0.952-2.58,2.51-2.58,3.461,0L818.753,428.203z"/>
	</g>
	<g opacity="0.3">
		<path d="M790.995,361.254c0.952-2.58,1.973-2.454,2.27,0.279l5.967,55.052c0.297,2.733,0.065,7.17-0.513,9.858l-11.834,55.763
			c-0.578,2.688-0.885,7.138-0.885,9.888v36.082c0,2.75-0.827,7.151-1.634,9.78l-8.462,27.284c-0.807,2.629-3.801,4.76-6.551,4.76
			h-50.369c-2.75,0-4.221-2.091-3.27-4.671L790.995,361.254z"/>
	</g>
</g>
<g>
	<path fill="#F2F3F4" d="M888.216,587c2.75,0,4.222-2.192,3.27-4.772l-94.412-255.946c-0.952-2.58-2.509-2.601-3.461-0.021
		l-94.411,255.977c-0.952,2.58,0.52,4.763,3.27,4.763H888.216z"/>
</g>
<g>
	<path fill="#F2F3F4" d="M944.304,587c2.75,0,4.222-2.192,3.27-4.772l-69.652-188.833c-0.952-2.58-2.509-2.601-3.461-0.021
		l-69.653,188.863c-0.952,2.58,0.52,4.763,3.27,4.763H944.304z"/>
</g>
<g>
	<path fill="#3BB3DA" d="M900.603,454.83c0.952,2.579-0.029,6.093-2.181,7.806l-1.64,1.307c-2.151,1.713-5.717,1.772-7.923,0.131
		l-2.109-1.568c-2.206-1.642-6.24-2.672-8.963-2.291l-3.184,0.446c-2.723,0.381-5.614-1.457-6.424-4.085l-1.449-4.703
		c-0.81-2.628-3.627-4.129-6.26-3.336l-2.379,0.717c-2.633,0.793-4.009-0.669-3.057-3.249l19.425-52.65
		c0.952-2.58,2.509-2.58,3.461,0L900.603,454.83z"/>
</g>
<g opacity="0.1">
	<path d="M874.834,393.354c0.952-2.58,1.973-2.454,2.27,0.279l5.461,50.393c0.297,2.733,0.065,7.17-0.513,9.858l-10.994,51.064
		c-0.578,2.688-1.058,7.138-1.058,9.888v32.778c0,2.75-0.654,7.151-1.461,9.78l-7.564,24.744c-0.807,2.629-3.714,4.861-6.464,4.861
		h-46.044c-2.75,0-4.222-2.192-3.27-4.772L874.834,393.354z"/>
</g>
<g>
	<path fill="#3BB3DA" d="M821.109,391.918c0.946,2.582,0.469,6.565-1.06,8.852l-1.53,2.29c-1.528,2.286-4.822,3.213-7.318,2.06
		l-2.504-1.155c-2.496-1.153-6.639-1.287-9.204-0.298l-4.692,1.811c-2.565,0.989-5.977-0.029-7.58-2.264l-1.753-2.297
		c-1.604-2.232-5.165-3.916-7.915-3.916h-5.211c-2.75,0-4.215-2.254-3.255-4.83l24.511-65.862c0.96-2.577,2.519-2.609,3.465-0.026
		L821.109,391.918z"/>
</g>
<g opacity="0.1">
	<path d="M793.822,328.71c0.952-2.58,1.973-2.454,2.27,0.279l7.57,69.838c0.297,2.733,0.065,7.17-0.513,9.858l-15.153,70.674
		c-0.578,2.688-0.996,7.138-0.996,9.888v46.567c0,2.75-0.717,7.151-1.523,9.78l-10.98,35.658c-0.807,2.629-3.745,4.747-6.495,4.747
		h-64.105c-2.75,0-4.221-2.078-3.27-4.658L793.822,328.71z"/>
</g>
<g>
	<path fill="#F2F3F4" d="M738.891,586.066c0,0-0.146-0.651-0.323-1.447s-1.135-3.546-2.127-6.11l-76.617-198.051
		c-0.992-2.564-2.952-2.728-4.354-0.362l-34.352,57.943c-1.402,2.365-3.602,2.312-4.887-0.119l-13.863-26.225
		c-1.285-2.431-3.313-2.393-4.507,0.085l-84.338,175.058"/>
</g>
<g>
	<path fill="#3BB3DA" d="M678.65,429.227c0.991,2.565,0.234,6.278-1.682,8.252l-4.06,4.182c-1.916,1.974-4.499,1.58-5.74-0.873
		l-1.274-2.519c-1.242-2.453-3.753-3.18-5.583-1.614s-4.823,1.167-6.653-0.885l-3.72-4.172c-1.83-2.052-4.757-1.994-6.505,0.129
		l-8.081,9.606c-1.748,2.123-3.353,1.61-3.353-1.14v-7.112c0-2.75-1.723-3.793-4.043-2.317l-0.029,0.075
		c-2.321,1.476-3.028,0.747-1.625-1.618l29.145-49.125c1.402-2.365,3.372-2.202,4.362,0.363L678.65,429.227z"/>
</g>
<g opacity="0.1">
	<path d="M655.469,380.096c1.402-2.365,2.381-2.057,2.175,0.686l-5.146,68.427c-0.206,2.743-0.976,7.154-1.711,9.805l-13.952,50.33
		c-0.735,2.65-1.697,7.039-2.139,9.753l-10.097,62.035c-0.442,2.715-1.161,2.714-1.599-0.001l-6.965-43.224
		c-0.438-2.715-1.48-7.08-2.318-9.699l-19.095-59.723c-0.837-2.619-2.07-6.945-2.739-9.612l-4.506-17.959
		c-0.669-2.667-0.24-6.877,0.954-9.354l9.529-19.779c1.194-2.477,3.222-2.515,4.507-0.084l13.863,26.225
		c1.285,2.431,3.484,2.484,4.887,0.119L655.469,380.096z"/>
</g>
<g>
	<path fill="#162B35" d="M675.622,587c-2.75,0-4.221-2.192-3.27-4.772l45.569-123.556c0.952-2.58,2.509-2.601,3.461-0.021
		l45.569,123.586c0.952,2.58-0.52,4.763-3.27,4.763H675.622z"/>
</g>
<g>
	<path fill="#3BB3DA" d="M703.851,496.766c-0.952,2.58-0.303,5.828,1.442,7.219c1.745,1.39,4.702,1.39,6.57,0
		c1.868-1.391,5.372-2.25,7.785-1.912s5.051-1.535,5.86-4.163l0.002-0.007c0.81-2.628,3.276-4.235,5.48-3.57
		c2.204,0.664,3.229-0.904,2.277-3.484l-11.886-32.217c-0.952-2.58-2.509-2.58-3.461,0L703.851,496.766z"/>
</g>
<g opacity="0.3">
	<path d="M721.131,458.631c-0.952-2.58-1.973-2.454-2.269,0.279l-3.308,30.519c-0.296,2.733-0.065,7.17,0.514,9.858l6.778,31.024
		c0.579,2.688,1.154,7.138,1.154,9.888v18.688c0,2.75,0.559,7.151,1.365,9.78l4.058,13.471c0.806,2.629,3.666,4.861,6.416,4.861
		h27.584c2.75,0,4.222-2.192,3.27-4.772L721.131,458.631z"/>
</g>
<g>
	<g>
		<path fill="#162B35" d="M997.662,596c2.75,0,4.221-2.111,3.27-4.691l-40.398-109.496c-0.951-2.579-2.509-2.58-3.461,0
			l-40.396,109.496c-0.952,2.58,0.52,4.691,3.27,4.691H997.662z"/>
	</g>
	<g>
		<path fill="#3BB3DA" d="M972.756,514.936c0.951,2.58,0.453,5.709-1.107,6.952c-1.562,1.243-4.206,1.243-5.877,0
			c-1.672-1.243-4.806-2.014-6.965-1.711s-4.519-1.374-5.243-3.727s-2.931-3.791-4.902-3.197s-2.807-1.032-1.854-3.612
			l10.266-27.827c0.952-2.58,2.51-2.58,3.461-0.001L972.756,514.936z"/>
	</g>
	<g opacity="0.3">
		<path d="M957.3,481.813c0.952-2.58,1.973-2.454,2.269,0.279l2.844,26.251c0.296,2.733,0.064,7.17-0.514,9.858l-5.799,26.719
			c-0.578,2.688-1.1,7.138-1.1,9.888v15.663c0,2.75-0.612,7.151-1.418,9.78l-3.342,10.968c-0.805,2.629-3.691,4.78-6.441,4.78
			h-23.62c-2.75,0-4.222-2.111-3.27-4.691L957.3,481.813z"/>
	</g>
</g>
<g>
	<g>
		<path fill="#162B35" d="M547.189,593c2.75,0,4.221-2.139,3.27-4.717l-32.762-88.814c-0.952-2.58-2.509-2.587-3.461-0.007
			l-32.761,88.824c-0.952,2.58,0.52,4.714,3.27,4.714H547.189z"/>
	</g>
	<g>
		<path fill="#3BB3DA" d="M527.188,525.178c0.952,2.579,0.676,5.53-0.613,6.558s-3.474,1.027-4.854,0s-3.968-1.663-5.751-1.413
			c-1.784,0.25-3.732-1.135-4.331-3.078c-0.598-1.942-2.42-3.13-4.049-2.64s-2.182-1.22-1.23-3.8l7.876-21.35
			c0.952-2.58,2.509-2.58,3.461,0L527.188,525.178z"/>
	</g>
	<g opacity="0.3">
		<path d="M514.423,499.455c0.952-2.58,1.973-2.454,2.269,0.279l2.161,19.95c0.296,2.733,0.065,7.17-0.513,9.858l-4.335,20.365
			c-0.579,2.688-1.005,7.138-1.005,9.888v11.194c0,2.75-0.707,7.151-1.514,9.78l-2.293,7.423c-0.807,2.629-3.74,4.807-6.49,4.807
			h-17.767c-2.75,0-4.221-2.139-3.27-4.719L514.423,499.455z"/>
	</g>
</g>
<g>
	<circle fill="#F2F3F4" cx="943.307" cy="71.446" r="21.739"/>
	<circle fill="#F2F3F4" cx="963.286" cy="75.561" r="26.15"/>
	<circle fill="#F2F3F4" cx="965.099" cy="57.396" r="14.05"/>
	<circle fill="#F2F3F4" cx="987.241" cy="71.839" r="17.847"/>
</g>
<g>
	<circle fill="#F2F3F4" cx="460.278" cy="213.998" r="10.701"/>
	<circle fill="#F2F3F4" cx="450.443" cy="211.973" r="12.872"/>
	<circle fill="#F2F3F4" cx="449.551" cy="220.914" r="6.916"/>
	<circle fill="#F2F3F4" cx="438.652" cy="213.806" r="8.785"/>
</g>
<g>
	<circle fill="#F2F3F4" cx="584.969" cy="158.202" r="36.794"/>
	<circle fill="#F2F3F4" cx="546.423" cy="140.682" r="38.546"/>
	<circle fill="#F2F3F4" cx="561.753" cy="171.779" r="23.215"/>
	<circle fill="#F2F3F4" cx="534.834" cy="176.306" r="15.927"/>
	<circle fill="#F2F3F4" cx="503.339" cy="157.484" r="21.743"/>
	<circle fill="#F2F3F4" cx="514.21" cy="168.355" r="10.872"/>
</g>
<g>
	<circle fill="#F2F3F4" cx="973.085" cy="199.219" r="15.44"/>
	<path fill="#F2F3F4" d="M940.321,196.295c0-10.256,8.314-18.571,18.573-18.571c10.258,0,18.573,8.315,18.573,18.571
		c0,10.26-8.315,18.575-18.573,18.575C948.636,214.87,940.321,206.555,940.321,196.295z"/>
	<circle fill="#F2F3F4" cx="957.607" cy="209.197" r="9.979"/>
	<circle fill="#F2F3F4" cx="941.88" cy="198.941" r="12.676"/>
</g>
<g>
	<path fill="#3BB3DA" d="M574.745,249.987c0,0,13.511-5.39,18.9,6.038C593.645,256.025,584.951,248.91,574.745,249.987z"/>
	<path fill="#3BB3DA" d="M611.965,249.987c0,0-13.511-5.39-18.902,6.038C593.063,256.025,601.757,248.91,611.965,249.987z"/>
</g>
<g>
	<path fill="#3BB3DA" d="M938.177,126.299c0,0,13.511-5.39,18.899,6.037C957.076,132.336,948.383,125.222,938.177,126.299z"/>
	<path fill="#3BB3DA" d="M975.396,126.299c0,0-13.511-5.39-18.901,6.037C956.495,132.336,965.188,125.222,975.396,126.299z"/>
</g>
<g>
	<path fill="#3BB3DA" d="M1002.312,262.203c0,0,13.511-5.389,18.899,6.038C1021.211,268.241,1012.518,261.127,1002.312,262.203z"/>
	<path fill="#3BB3DA" d="M1039.531,262.203c0,0-13.511-5.389-18.901,6.038C1020.63,268.241,1029.324,261.127,1039.531,262.203z"/>
</g>
<g>
	<polygon fill="#1AA341" points="988.022,594.992 1007.518,564.272 1024.373,596.516 	"/>
	<rect x="1004" y="564" fill="#122530" width="5" height="40"/>
	<polygon fill="#33EB6F" points="989.07,593 1007.261,561.493 1025.452,593 	"/>
	<polygon fill="#1AA341" points="989.157,583.787 1005.585,551.326 1025.483,581.783 	"/>
	<polygon fill="#33EB6F" points="989.592,581 1007.783,549.495 1025.975,581 	"/>
	<polygon fill="#1AA341" points="989.411,569.537 1008.906,538.818 1025.762,571.061 	"/>
	<polygon fill="#33EB6F" points="989.592,569 1007.783,537.493 1025.975,569 	"/>
	<polygon fill="#1AA341" points="990.546,558.332 1006.973,525.87 1026.872,556.329 	"/>
	<polygon fill="#33EB6F" points="990.113,555 1008.304,523.491 1026.495,555 	"/>
</g>
<g>
	<polygon fill="#1AA341" points="542.131,599.573 561.626,568.854 578.481,601.098 	"/>
	<rect x="558" y="569" fill="#122530" width="5" height="39"/>
	<polygon fill="#33EB6F" points="543.18,598 561.37,566.493 579.562,598 	"/>
	<polygon fill="#1AA341" points="543.266,588.368 559.693,555.906 579.593,586.363 	"/>
	<polygon fill="#33EB6F" points="543.7,585 561.892,553.495 580.083,585 	"/>
	<polygon fill="#1AA341" points="543.52,574.117 563.015,543.399 579.87,575.642 	"/>
	<polygon fill="#33EB6F" points="543.7,573 561.892,541.493 580.083,573 	"/>
	<polygon fill="#1AA341" points="544.654,562.912 561.082,530.451 580.981,560.91 	"/>
	<polygon fill="#33EB6F" points="544.222,559 562.412,527.492 580.604,559 	"/>
</g>
<g>
	<polygon fill="#1AA341" points="965.117,611.731 976.71,593.462 986.734,612.638 	"/>
	<rect x="975" y="593" fill="#122530" width="2" height="24"/>
	<polygon fill="#33EB6F" points="965.74,611 976.558,592.263 987.377,611 	"/>
	<polygon fill="#1AA341" points="965.791,605.066 975.562,585.763 987.396,603.875 	"/>
	<polygon fill="#33EB6F" points="966.051,604 976.868,585.265 987.688,604 	"/>
	<polygon fill="#1AA341" points="965.943,596.592 977.536,578.324 987.561,597.499 	"/>
	<polygon fill="#33EB6F" points="966.051,596 976.868,577.262 987.688,596 	"/>
	<polygon fill="#1AA341" points="966.617,589.93 976.388,570.624 988.223,588.738 	"/>
	<polygon fill="#33EB6F" points="966.361,588 977.178,569.263 987.997,588 	"/>
</g>
<g>
	<polygon fill="#1AA341" points="459.672,578.137 471.265,559.867 481.289,579.043 	"/>
	<rect x="470" y="559" fill="#122530" width="1" height="25"/>
	<polygon fill="#33EB6F" points="460.295,578 471.113,559.263 481.932,578 	"/>
	<polygon fill="#1AA341" points="460.346,571.473 470.117,552.168 481.951,570.281 	"/>
	<polygon fill="#33EB6F" points="460.605,570 471.423,551.264 482.243,570 	"/>
	<polygon fill="#1AA341" points="460.498,562.998 472.091,544.73 482.115,563.904 	"/>
	<polygon fill="#33EB6F" points="460.605,562 471.423,543.262 482.243,562 	"/>
	<polygon fill="#1AA341" points="461.172,556.335 470.943,537.029 482.777,555.144 	"/>
	<polygon fill="#33EB6F" points="460.916,555 471.733,536.263 482.552,555 	"/>
</g>
<g>
	<polygon fill="#1AA341" points="838.374,608.735 857.869,578.016 874.725,610.26 	"/>
	<rect x="855" y="578" fill="#122530" width="4" height="39"/>
	<polygon fill="#33EB6F" points="839.422,607 857.612,575.493 875.804,607 	"/>
	<polygon fill="#1AA341" points="839.509,597.53 855.937,565.068 875.836,595.525 	"/>
	<polygon fill="#33EB6F" points="839.943,594 858.135,562.495 876.326,594 	"/>
	<polygon fill="#1AA341" points="839.763,583.279 859.258,552.562 876.113,584.804 	"/>
	<polygon fill="#33EB6F" points="839.943,582 858.135,550.493 876.326,582 	"/>
	<polygon fill="#1AA341" points="840.897,572.074 857.324,539.613 877.224,570.072 	"/>
	<polygon fill="#33EB6F" points="840.465,569 858.655,537.492 876.847,569 	"/>
</g>
<g>
	<polygon fill="#1AA341" points="403.172,613.316 422.667,582.597 439.522,614.84 	"/>
	<rect x="419" y="582" fill="#122530" width="5" height="40"/>
	<polygon fill="#33EB6F" points="404.22,611 422.411,579.493 440.602,611 	"/>
	<polygon fill="#1AA341" points="404.307,602.111 420.734,569.65 440.633,600.107 	"/>
	<polygon fill="#33EB6F" points="404.741,599 422.933,567.494 441.124,599 	"/>
	<polygon fill="#1AA341" points="404.561,587.861 424.055,557.143 440.911,589.385 	"/>
	<polygon fill="#33EB6F" points="404.741,587 422.933,555.493 441.124,587 	"/>
	<polygon fill="#1AA341" points="405.695,576.656 422.123,544.194 442.021,574.653 	"/>
	<polygon fill="#33EB6F" points="405.263,573 423.453,541.491 441.645,573 	"/>
</g>
<g>
	<polygon fill="#1AA341" points="1094.914,578.137 1106.507,559.867 1116.531,579.043 	"/>
	<rect x="1105" y="559" fill="#122530" width="2" height="25"/>
	<polygon fill="#33EB6F" points="1095.537,578 1106.355,559.263 1117.174,578 	"/>
	<polygon fill="#1AA341" points="1095.588,571.473 1105.358,552.168 1117.193,570.281 	"/>
	<polygon fill="#33EB6F" points="1095.848,570 1106.665,551.264 1117.485,570 	"/>
	<polygon fill="#1AA341" points="1095.74,562.998 1107.333,544.73 1117.357,563.904 	"/>
	<polygon fill="#33EB6F" points="1095.848,562 1106.665,543.262 1117.485,562 	"/>
	<polygon fill="#1AA341" points="1096.414,556.335 1106.185,537.029 1118.02,555.144 	"/>
	<polygon fill="#33EB6F" points="1096.158,555 1106.976,536.263 1117.794,555 	"/>
</g>
<g>
	<polygon fill="#1AA341" points="672.091,599.515 683.684,581.246 693.707,600.422 	"/>
	<rect x="682" y="581" fill="#122530" width="2" height="24"/>
	<polygon fill="#33EB6F" points="672.714,599 683.531,580.262 694.351,599 	"/>
	<polygon fill="#1AA341" points="672.765,592.851 682.535,573.547 694.369,591.659 	"/>
	<polygon fill="#33EB6F" points="673.024,591 683.842,572.265 694.662,591 	"/>
	<polygon fill="#1AA341" points="672.917,584.376 684.51,566.108 694.533,585.282 	"/>
	<polygon fill="#33EB6F" points="673.024,584 683.842,565.261 694.662,584 	"/>
	<polygon fill="#1AA341" points="673.591,577.713 683.361,558.407 695.195,576.521 	"/>
	<polygon fill="#33EB6F" points="673.334,576 684.151,557.263 694.971,576 	"/>
</g>
<g>
	<g>
		<rect x="526" y="653" fill="#122530" width="4" height="31"/>
		<g>
			<polygon fill="#33EB6F" points="514.915,639 529.31,614.066 543.705,639 			"/>
			<polygon fill="#33EB6F" points="514.502,649 528.897,624.066 543.292,649 			"/>
			<polygon fill="#33EB6F" points="514.502,659 528.897,634.067 543.292,659 			"/>
			<polygon fill="#33EB6F" points="514.09,669 528.485,644.067 542.88,669 			"/>
		</g>
	</g>
	<g>
		<rect x="1267" y="601" fill="#122530" width="4" height="31"/>
		<g>
			<polygon fill="#33EB6F" points="1255.914,587 1270.31,562.066 1284.705,587 			"/>
			<polygon fill="#33EB6F" points="1255.502,597 1269.897,572.066 1284.293,597 			"/>
			<polygon fill="#33EB6F" points="1255.502,607 1269.897,582.067 1284.293,607 			"/>
			<polygon fill="#33EB6F" points="1255.09,617 1269.484,592.067 1283.88,617 			"/>
		</g>
	</g>
	<g>
		<rect x="896" y="670" fill="#122530" width="1" height="14"/>
		<g>
			<polygon fill="#33EB6F" points="890.469,664 897.087,652.537 903.705,664 			"/>
			<polygon fill="#33EB6F" points="890.279,668 896.897,656.537 903.516,668 			"/>
			<polygon fill="#33EB6F" points="890.279,673 896.897,661.538 903.516,673 			"/>
			<polygon fill="#33EB6F" points="890.09,677 896.707,665.538 903.326,677 			"/>
		</g>
	</g>
	<g>
		<rect x="226" y="585" fill="#122530" width="2" height="18"/>
		<g>
			<polygon fill="#33EB6F" points="219.27,576 227.886,561.076 236.501,576 			"/>
			<polygon fill="#33EB6F" points="219.022,582 227.639,567.076 236.254,582 			"/>
			<polygon fill="#33EB6F" points="219.022,588 227.639,573.076 236.254,588 			"/>
			<polygon fill="#33EB6F" points="218.775,593 227.392,578.076 236.008,593 			"/>
		</g>
	</g>
	<g>
		<rect x="1154" y="709" fill="#122530" width="2" height="18"/>
		<g>
			<polygon fill="#33EB6F" points="1147.27,700 1155.886,685.076 1164.501,700 			"/>
			<polygon fill="#33EB6F" points="1147.022,706 1155.639,691.076 1164.254,706 			"/>
			<polygon fill="#33EB6F" points="1147.022,712 1155.639,697.076 1164.254,712 			"/>
			<polygon fill="#33EB6F" points="1146.775,717 1155.392,702.076 1164.008,717 			"/>
		</g>
	</g>
	<g>
		<rect x="375" y="591" fill="#122530" width="2" height="18"/>
		<g>
			<polygon fill="#33EB6F" points="368.27,582 376.886,567.076 385.501,582 			"/>
			<polygon fill="#33EB6F" points="368.022,588 376.639,573.076 385.254,588 			"/>
			<polygon fill="#33EB6F" points="368.022,594 376.639,579.076 385.254,594 			"/>
			<polygon fill="#33EB6F" points="367.775,599 376.392,584.076 385.008,599 			"/>
		</g>
	</g>
	<g>
		<rect x="1127" y="681" fill="#122530" width="3" height="26"/>
		<g>
			<polygon fill="#33EB6F" points="1117.491,668 1129.969,646.388 1142.443,668 			"/>
			<polygon fill="#33EB6F" points="1117.133,677 1129.61,655.389 1142.086,677 			"/>
			<polygon fill="#33EB6F" points="1117.133,685 1129.61,663.389 1142.086,685 			"/>
			<polygon fill="#33EB6F" points="1116.775,693 1129.252,671.389 1141.73,693 			"/>
		</g>
	</g>
	<g>
		<rect x="393" y="612" fill="#122530" width="2" height="18"/>
		<g>
			<polygon fill="#33EB6F" points="386.27,603 394.886,588.076 403.501,603 			"/>
			<polygon fill="#33EB6F" points="386.022,609 394.639,594.076 403.254,609 			"/>
			<polygon fill="#33EB6F" points="386.022,615 394.639,600.076 403.254,615 			"/>
			<polygon fill="#33EB6F" points="385.775,620 394.392,605.076 403.008,620 			"/>
		</g>
	</g>
	<g>
		<rect x="557" y="675" fill="#122530" width="1" height="15"/>
		<g>
			<polygon fill="#33EB6F" points="551.172,668 558.087,656.022 565.002,668 			"/>
			<polygon fill="#33EB6F" points="550.974,673 557.889,661.021 564.804,673 			"/>
			<polygon fill="#33EB6F" points="550.974,678 557.889,666.021 564.804,678 			"/>
			<polygon fill="#33EB6F" points="550.775,682 557.69,670.022 564.606,682 			"/>
		</g>
	</g>
	<g>
		<rect x="1238" y="626" fill="#122530" width="1" height="15"/>
		<g>
			<polygon fill="#33EB6F" points="1232.172,619 1239.087,607.022 1246.002,619 			"/>
			<polygon fill="#33EB6F" points="1231.974,624 1238.889,612.021 1245.804,624 			"/>
			<polygon fill="#33EB6F" points="1231.974,629 1238.889,617.021 1245.804,629 			"/>
			<polygon fill="#33EB6F" points="1231.775,633 1238.69,621.022 1245.606,633 			"/>
		</g>
	</g>
	<g>
		<path fill="#3BB3DA" d="M329.821,687.913c-0.47,1.249-1.864,1.881-3.113,1.411l-22.621-8.504c-1.249-0.47-1.881-1.863-1.412-3.112
			l8.504-22.621c0.47-1.249,1.864-1.881,3.113-1.412l22.621,8.505c1.249,0.47,1.881,1.863,1.412,3.112L329.821,687.913z"/>
		<text transform="matrix(0.936 0.3519 -0.3519 0.936 313.3979 674.7471)" font-family="'AlegreyaSans-Regular'" font-size="18">A</text>
	</g>
	<g>
		<path fill="#FFFFFF" d="M728,629.583c0,1.335-1.082,2.417-2.416,2.417h-24.168c-1.334,0-2.416-1.082-2.416-2.417v-24.166
			c0-1.335,1.082-2.417,2.416-2.417h24.168c1.334,0,2.416,1.082,2.416,2.417V629.583z"/>
		<text transform="matrix(1 0 0 1 708 623)" font-family="'AlegreyaSans-Regular'" font-size="18">B</text>
	</g>
	<g>
		<path fill="#FFCC00" d="M952,721.583c0,1.335-1.082,2.417-2.416,2.417h-24.168c-1.334,0-2.416-1.082-2.416-2.417v-24.166
			c0-1.335,1.082-2.417,2.416-2.417h24.168c1.334,0,2.416,1.082,2.416,2.417V721.583z"/>
		<text transform="matrix(1 0 0 1 932 715)" font-family="'AlegreyaSans-Regular'" font-size="18">C</text>
	</g>
	<g>
		<path fill="#33EB6F" d="M676.753,709.347c-0.397,1.274-1.751,1.986-3.025,1.59l-23.076-7.184
			c-1.274-0.397-1.985-1.752-1.588-3.026l7.184-23.073c0.397-1.274,1.751-1.986,3.025-1.59l23.076,7.184
			c1.273,0.397,1.985,1.752,1.588,3.026L676.753,709.347z"/>
		<text transform="matrix(0.9548 0.2973 -0.2973 0.9548 659.6196 697.1172)" font-family="'AlegreyaSans-Regular'" font-size="18">D</text>
	</g>
	<g>
		<path fill="#FFCC00" d="M1345.543,683.039c0.517,1.231-0.063,2.647-1.294,3.163l-22.289,9.342
			c-1.23,0.516-2.646-0.064-3.163-1.296l-9.34-22.287c-0.517-1.231,0.063-2.647,1.294-3.163l22.289-9.342
			c1.23-0.516,2.646,0.064,3.163,1.296L1345.543,683.039z"/>
		<text transform="matrix(0.9223 -0.3865 0.3865 0.9223 1324.5498 684.6777)" font-family="'AlegreyaSans-Regular'" font-size="18">E</text>
	</g>
	<g>
		<path fill="#3BB3DA" d="M1086.059,669.56c0.257,1.31-0.596,2.58-1.904,2.837l-23.715,4.662c-1.309,0.258-2.579-0.596-2.837-1.905
			l-4.661-23.713c-0.257-1.31,0.596-2.58,1.904-2.837l23.715-4.662c1.309-0.257,2.579,0.596,2.837,1.906L1086.059,669.56z"/>
		<text transform="matrix(0.9812 -0.1929 0.1929 0.9812 1066.165 666.7305)" font-family="'AlegreyaSans-Regular'" font-size="18">F</text>
	</g>
	<g>
		<path fill="#FFCC00" d="M616.058,653.514c0.006,1.335-1.071,2.423-2.405,2.429l-24.167,0.114c-1.334,0.007-2.422-1.07-2.428-2.405
			l-0.114-24.165c-0.007-1.336,1.07-2.423,2.404-2.429l24.167-0.115c1.334-0.006,2.422,1.071,2.428,2.406L616.058,653.514z"/>
		<text transform="matrix(1 -0.0047 0.0047 1 596.001 647.0674)" font-family="'AlegreyaSans-Regular'" font-size="18">G</text>
	</g>
	<g>
		<path fill="#FFFFFF" d="M1191,623.583c0,1.335-1.082,2.417-2.416,2.417h-24.168c-1.334,0-2.416-1.082-2.416-2.417v-24.166
			c0-1.335,1.082-2.417,2.416-2.417h24.168c1.334,0,2.416,1.082,2.416,2.417V623.583z"/>
		<text transform="matrix(1 0 0 1 1171 617)" font-family="'AlegreyaSans-Regular'" font-size="18">H</text>
	</g>
	<g>
		<path fill="#FFFFFF" d="M235,641.583c0,1.335-1.082,2.417-2.416,2.417h-24.168c-1.334,0-2.416-1.082-2.416-2.417v-24.166
			c0-1.335,1.082-2.417,2.416-2.417h24.168c1.334,0,2.416,1.082,2.416,2.417V641.583z"/>
		<text transform="matrix(1 0 0 1 219 635)" font-family="'AlegreyaSans-Regular'" font-size="18">I</text>
	</g>
	<g>
		<path fill="#3BB3DA" d="M1243.098,697.392c-0.284,1.304-1.572,2.131-2.875,1.848l-23.615-5.143
			c-1.303-0.283-2.13-1.571-1.846-2.875l5.141-23.613c0.284-1.304,1.572-2.131,2.875-1.848l23.615,5.143
			c1.303,0.283,2.13,1.571,1.847,2.875L1243.098,697.392z"/>
		<text transform="matrix(0.9771 0.2128 -0.2128 0.9771 1228.8848 687.6182)" font-family="'AlegreyaSans-Regular'" font-size="18">J</text>
	</g>
	<g>
		<path fill="#33EB6F" d="M1009.11,649.464c0.265,1.309-0.581,2.584-1.889,2.849l-23.687,4.798c-1.308,0.265-2.583-0.581-2.848-1.89
			l-4.798-23.685c-0.265-1.309,0.581-2.584,1.889-2.849l23.687-4.798c1.308-0.265,2.583,0.581,2.848,1.89L1009.11,649.464z"/>
		<text transform="matrix(0.9801 -0.1985 0.1985 0.9801 987.2666 647.1445)" font-family="'AlegreyaSans-Regular'" font-size="18">M</text>
	</g>
	<g>
		<path fill="#3BB3DA" d="M810.83,696.977c0.379,1.28-0.352,2.625-1.631,3.003l-23.177,6.852c-1.279,0.378-2.624-0.353-3.002-1.633
			l-6.852-23.175c-0.378-1.28,0.353-2.625,1.632-3.003l23.177-6.852c1.279-0.378,2.624,0.353,3.002,1.633L810.83,696.977z"/>
		<text transform="matrix(0.959 -0.2835 0.2835 0.959 789.7773 696.2979)" font-family="'AlegreyaSans-Regular'" font-size="18">N</text>
	</g>
	<g>
		<path fill="#FFCC00" d="M334.785,602.326c-0.394,1.275-1.748,1.99-3.022,1.596l-23.09-7.138c-1.275-0.394-1.989-1.747-1.595-3.022
			l7.137-23.088c0.394-1.275,1.748-1.99,3.022-1.596l23.09,7.138c1.274,0.394,1.989,1.747,1.595,3.022L334.785,602.326z"/>
		<text transform="matrix(0.9554 0.2953 -0.2953 0.9554 319.4702 590.7197)" font-family="'AlegreyaSans-Regular'" font-size="18">L</text>
	</g>
</g>
<g>
	<circle fill="#F2F3F4" cx="338.278" cy="441.998" r="10.701"/>
	<circle fill="#F2F3F4" cx="328.443" cy="439.973" r="12.872"/>
	<circle fill="#F2F3F4" cx="327.551" cy="448.914" r="6.916"/>
	<circle fill="#F2F3F4" cx="316.652" cy="441.806" r="8.785"/>
</g>
<g>
	<circle fill="#F2F3F4" cx="1133.278" cy="427.998" r="10.701"/>
	<circle fill="#F2F3F4" cx="1123.443" cy="425.973" r="12.872"/>
	<circle fill="#F2F3F4" cx="1122.551" cy="434.914" r="6.916"/>
	<circle fill="#F2F3F4" cx="1111.652" cy="427.806" r="8.785"/>
</g>
<g>
	<circle fill="#F2F3F4" cx="1333.313" cy="455.688" r="4.73"/>
	<circle fill="#F2F3F4" cx="1328.964" cy="454.791" r="5.691"/>
	<circle fill="#F2F3F4" cx="1328.57" cy="458.744" r="3.058"/>
	<circle fill="#F2F3F4" cx="1323.751" cy="455.602" r="3.884"/>
</g>
<g>
	<circle fill="#F2F3F4" cx="1094.313" cy="398.688" r="4.73"/>
	<circle fill="#F2F3F4" cx="1089.964" cy="397.791" r="5.691"/>
	<circle fill="#F2F3F4" cx="1089.57" cy="401.744" r="3.058"/>
	<circle fill="#F2F3F4" cx="1084.751" cy="398.602" r="3.884"/>
</g>
<g>
	<circle fill="#F2F3F4" cx="376.313" cy="419.688" r="4.73"/>
	<circle fill="#F2F3F4" cx="371.964" cy="418.791" r="5.691"/>
	<circle fill="#F2F3F4" cx="371.57" cy="422.744" r="3.058"/>
	<circle fill="#F2F3F4" cx="366.751" cy="419.602" r="3.884"/>
</g>
<g>
	<circle fill="#F2F3F4" cx="154.313" cy="524.688" r="4.73"/>
	<circle fill="#F2F3F4" cx="149.964" cy="523.791" r="5.691"/>
	<circle fill="#F2F3F4" cx="149.57" cy="527.744" r="3.058"/>
	<circle fill="#F2F3F4" cx="144.751" cy="524.602" r="3.884"/>
</g>
<g>
	<path fill="#FFCC00" d="M110.707,667.256c0.358,1.286-0.395,2.619-1.68,2.977l-23.285,6.475c-1.285,0.357-2.618-0.395-2.975-1.681
		l-6.475-23.282c-0.357-1.286,0.395-2.619,1.68-2.977l23.285-6.475c1.285-0.357,2.618,0.395,2.975,1.681L110.707,667.256z"/>
	<text transform="matrix(0.9634 -0.2679 0.2679 0.9634 89.6836 666.293)" font-family="'AlegreyaSans-Regular'" font-size="18">C</text>
</g>
<g>
	<rect x="103" y="616" fill="#122530" width="1" height="15"/>
	<g>
		<polygon fill="#33EB6F" points="97.172,609 104.087,597.022 111.002,609 		"/>
		<polygon fill="#33EB6F" points="96.974,614 103.889,602.021 110.804,614 		"/>
		<polygon fill="#33EB6F" points="96.974,619 103.889,607.021 110.804,619 		"/>
		<polygon fill="#33EB6F" points="96.775,623 103.69,611.022 110.606,623 		"/>
	</g>
</g>
<g>
	<path fill="#3BB3DA" d="M1464.83,716.977c0.379,1.28-0.352,2.625-1.631,3.003l-23.177,6.852c-1.279,0.378-2.624-0.353-3.002-1.633
		l-6.852-23.175c-0.378-1.28,0.353-2.625,1.632-3.003l23.177-6.852c1.279-0.378,2.624,0.353,3.002,1.633L1464.83,716.977z"/>
	<text transform="matrix(0.959 -0.2835 0.2835 0.959 1443.7773 716.2979)" font-family="'AlegreyaSans-Regular'" font-size="18">N</text>
</g>
<g>
	<rect x="242" y="698" fill="#122530" width="2" height="18"/>
	<g>
		<polygon fill="#33EB6F" points="235.27,689 243.886,674.076 252.501,689 		"/>
		<polygon fill="#33EB6F" points="235.022,695 243.639,680.076 252.254,695 		"/>
		<polygon fill="#33EB6F" points="235.022,701 243.639,686.076 252.254,701 		"/>
		<polygon fill="#33EB6F" points="234.775,706 243.392,691.076 252.008,706 		"/>
	</g>
</g>
<g>
	<rect x="260" y="719" fill="#122530" width="2" height="18"/>
	<g>
		<polygon fill="#33EB6F" points="253.27,710 261.886,695.076 270.501,710 		"/>
		<polygon fill="#33EB6F" points="253.022,716 261.639,701.076 270.254,716 		"/>
		<polygon fill="#33EB6F" points="253.022,722 261.639,707.076 270.254,722 		"/>
		<polygon fill="#33EB6F" points="252.775,727 261.392,712.076 270.008,727 		"/>
	</g>
</g>
<g>
	<polygon fill="#1AA341" points="1378.672,635.137 1390.265,616.867 1400.289,636.043 	"/>
	<rect x="1389" y="616" fill="#122530" width="1" height="25"/>
	<polygon fill="#33EB6F" points="1379.295,635 1390.113,616.263 1400.932,635 	"/>
	<polygon fill="#1AA341" points="1379.346,628.473 1389.117,609.168 1400.951,627.281 	"/>
	<polygon fill="#33EB6F" points="1379.605,627 1390.423,608.264 1401.243,627 	"/>
	<polygon fill="#1AA341" points="1379.498,619.998 1391.091,601.73 1401.115,620.904 	"/>
	<polygon fill="#33EB6F" points="1379.605,619 1390.423,600.262 1401.243,619 	"/>
	<polygon fill="#1AA341" points="1380.172,613.335 1389.943,594.029 1401.777,612.144 	"/>
	<polygon fill="#33EB6F" points="1379.916,612 1390.732,593.263 1401.552,612 	"/>
</g>
</svg>
