<?xml version="1.0" encoding="utf-8"?>
<!-- Generator: Adobe Illustrator 16.0.0, SVG Export Plug-In . SVG Version: 6.00 Build 0)  -->
<!DOCTYPE svg PUBLIC "-//W3C//DTD SVG 1.1//EN" "http://www.w3.org/Graphics/SVG/1.1/DTD/svg11.dtd">
<svg version="1.1" id="Layer_1" xmlns="http://www.w3.org/2000/svg" xmlns:xlink="http://www.w3.org/1999/xlink" x="0px" y="0px"
	 width="272.34px" height="80.142px" viewBox="0 0 272.34 80.142" enable-background="new 0 0 272.34 80.142" xml:space="preserve">
<g>
	<path fill="#1B456B" d="M100.252,39.437l-3.362-11.538h-0.415l-3.32,11.538h-7.139l-7.014-26.77h6.558l0.415,3.652l3.86,16.27
		h0.415l3.943-13.53l-1.66-6.392h6.807l0.581,4.316l4.026,15.605h0.415l4.524-15.896l0.706-4.026h6.226l-8.467,26.77H100.252z"/>
	<path fill="#1B456B" d="M140.718,25.408c0,9.214-4.731,14.485-12.991,14.485c-7.595,0-11.912-4.897-11.912-13.447
		c0-9.089,4.69-14.194,12.949-14.194C136.402,12.251,140.718,17.024,140.718,25.408z M122.83,25.533
		c0,6.973,1.494,9.255,5.479,9.255c3.86,0,5.354-2.034,5.354-7.969c0-6.89-1.453-9.172-5.479-9.172
		C124.283,17.647,122.83,19.681,122.83,25.533z"/>
	<path fill="#1B456B" d="M166.367,37.859l-0.083,0.747c-2.158,0.706-4.399,1.121-6.683,1.287l-0.664-0.54
		c-1.494-2.781-2.946-5.603-4.316-8.508h-3.527l0.249,8.591h-6.765l0.373-7.927l-0.373-18.843l11.289-0.042
		c5.769,0,9.047,2.864,9.047,8.093c0,3.32-1.784,6.226-4.772,8.135C162.091,31.883,164.125,34.913,166.367,37.859z M154.829,25.948
		c2.034-0.747,2.988-2.2,2.988-4.607c0-2.615-1.328-3.777-4.192-3.901l-2.24,0.125l-0.166,8.218L154.829,25.948z"/>
	<path fill="#1B456B" d="M181.099,12.5c7.845,0,12.119,4.441,12.119,12.493c0,9.504-4.896,14.775-13.779,14.775
		c-2.324,0-6.723-0.166-9.629-0.332h-0.041l0.373-7.927l-0.373-18.843h0.041L181.099,12.5z M186.205,26.612
		c0-6.35-1.701-8.799-5.645-8.799c-0.83,0-2.656,0.042-4.025,0.166l-0.25,12.866l0.084,3.486c1.535,0.208,3.486,0.332,4.316,0.332
		C184.129,34.664,186.205,32.381,186.205,26.612z"/>
</g>
<g>
	<path fill="#3B8EDA" d="M42.255,63.801c0,2.75-2.25,5-5,5h-12c-2.75,0-5-2.25-5-5v-12c0-2.75,2.25-5,5-5h12c2.75,0,5,2.25,5,5
		V63.801z"/>
</g>
<g>
	<path fill="#1B456B" d="M68.255,65.801c0,2.75-2.25,5-5,5h-12c-2.75,0-5-2.25-5-5v-12c0-2.75,2.25-5,5-5h12c2.75,0,5,2.25,5,5
		V65.801z"/>
</g>
<g>
	<path fill="#FFCC00" d="M94.255,63.801c0,2.75-2.25,5-5,5h-12c-2.75,0-5-2.25-5-5v-12c0-2.75,2.25-5,5-5h12c2.75,0,5,2.25,5,5
		V63.801z"/>
</g>
<g>
	<path fill="#3BB3DA" d="M121.255,65.801c0,2.75-2.25,5-5,5h-12c-2.75,0-5-2.25-5-5v-12c0-2.75,2.25-5,5-5h12c2.75,0,5,2.25,5,5
		V65.801z"/>
</g>
<g>
	<path fill="#33EB6F" d="M147.255,64.801c0,2.75-2.25,5-5,5h-12c-2.75,0-5-2.25-5-5v-12c0-2.75,2.25-5,5-5h12c2.75,0,5,2.25,5,5
		V64.801z"/>
</g>
<g>
	<path fill="#1B456B" d="M173.255,65.801c0,2.75-2.25,5-5,5h-12c-2.75,0-5-2.25-5-5v-12c0-2.75,2.25-5,5-5h12c2.75,0,5,2.25,5,5
		V65.801z"/>
</g>
<g>
	<path fill="#3BB3DA" d="M199.255,63.801c0,2.75-2.25,5-5,5h-12c-2.75,0-5-2.25-5-5v-12c0-2.75,2.25-5,5-5h12c2.75,0,5,2.25,5,5
		V63.801z"/>
</g>
<g>
	<path fill="#3B8EDA" d="M226.255,63.801c0,2.75-2.25,5-5,5h-12c-2.75,0-5-2.25-5-5v-12c0-2.75,2.25-5,5-5h12c2.75,0,5,2.25,5,5
		V63.801z"/>
</g>
<g>
	<path fill="#FFFFFF" d="M34.015,52.71l-0.234,1.386l-0.252,0.072c-0.702-0.54-1.512-0.828-2.269-0.828
		c-1.404,0-2.179,0.972-2.179,1.873c0,2.305,5.275,2.07,5.275,5.401c0,1.801-1.548,3.313-3.871,3.313c-0.99,0-2.143-0.27-3.097-0.81
		l0.18-1.477l0.198-0.09c0.882,0.864,1.999,1.206,2.863,1.206c1.44,0,2.305-0.954,2.305-1.944c0-2.431-5.257-2.089-5.257-5.438
		c0-1.782,1.53-3.205,3.763-3.205C32.124,52.17,33.042,52.314,34.015,52.71z"/>
</g>
<g>
	<path fill="#FFFFFF" d="M60.871,55.367l-0.288,1.314l-0.162,0.036c-0.756-0.63-1.674-1.008-2.773-1.008
		c-2.269,0-3.547,1.567-3.547,4.627c0,3.079,1.296,4.7,3.511,4.7c1.081,0,2.161-0.415,3.007-1.099l0.18,0.09l-0.126,1.368
		c-1.008,0.558-2.017,0.864-3.187,0.864c-3.097,0-4.879-2.07-4.879-5.798c0-3.835,1.873-5.959,5.114-5.959
		C58.944,54.503,60.006,54.809,60.871,55.367z"/>
</g>
<g>
	<path fill="#1B456B" d="M87.618,63.459l-0.018,0.18c-0.432,0.162-0.864,0.27-1.333,0.324l-0.198-0.126
		c-0.937-1.404-1.837-2.863-2.647-4.321h-2.106V60.2l0.072,3.601H79.93l0.09-3.475l-0.09-8.066l3.529-0.018
		c2.25,0,3.547,1.17,3.547,3.295c0,1.603-0.882,2.899-2.376,3.601C85.53,60.614,86.538,62.037,87.618,63.459z M83.495,58.346
		c1.314-0.378,2.017-1.278,2.017-2.683c0-1.494-0.829-2.178-2.377-2.232l-1.747,0.054l-0.054,4.807L83.495,58.346z"/>
</g>
<g>
	<path fill="#FFFFFF" d="M113.79,65.468l-0.27-1.152l-0.648-1.98l-2.593-0.054l-2.341,0.054l-0.702,1.908l-0.288,1.225h-1.44
		l4.231-11.542h1.674l3.854,11.542H113.79z M110.603,55.421h-0.126l-2.089,5.689l2.017,0.036l2.071-0.036L110.603,55.421z"/>
</g>
<g>
	<path fill="#1B456B" d="M140.734,64.468l-0.27-3.511l-0.612-5.744h-0.126l-3.205,7.922h-1.188l-3.043-7.922h-0.144l-0.612,5.636
		l-0.306,3.619h-1.225l1.207-11.542h1.639l0.594,1.765l2.502,6.572h0.108l2.629-6.68l0.594-1.657h1.621l1.135,11.542H140.734z"/>
</g>
<g>
	<path fill="#FFFFFF" d="M166.222,62.911c0,2.179-1.584,3.295-4.735,3.295c-0.396,0-1.819-0.018-2.539-0.072h-0.019l0.091-3.475
		l-0.091-8.066l3.205-0.018c2.125,0,3.367,0.955,3.367,2.809c0,1.314-0.63,2.269-1.729,2.737
		C165.412,60.445,166.222,61.363,166.222,62.911z M164.763,62.839c0-1.188-0.773-1.854-2.215-2.017l-2.214,0.018l-0.019,1.692
		l0.055,2.413c0.468,0.036,0.973,0.054,1.332,0.054C163.666,65,164.763,64.244,164.763,62.839z M161.847,55.763h-1.459l-0.036,3.871
		l1.981,0.054c1.098-0.252,1.691-0.937,1.691-2.143C164.025,56.303,163.377,55.763,161.847,55.763z"/>
</g>
<g>
	<path fill="#FFFFFF" d="M191.899,63.134h-5.689l0.09-3.475l-0.09-8.066h1.476l-0.09,7.94l0.055,2.395h4.268l0.107,0.126
		L191.899,63.134z"/>
</g>
<g>
	<path fill="#FFFFFF" d="M219.412,63.801h-6.482l0.091-3.475l-0.091-8.066h6.5l0.072,0.144l-0.107,1.116l-2.719-0.054l-2.287,0.036
		l-0.036,3.781l2.161,0.036l1.908-0.054l0.108,0.126l-0.126,1.117l-2.018-0.036l-2.052,0.018l-0.019,1.71l0.055,2.395l2.286,0.018
		l2.772-0.072l0.091,0.144L219.412,63.801z"/>
</g>
<g>
	<path fill="#FFCC00" d="M252.255,65.801c0,2.75-2.25,5-5,5h-12c-2.75,0-5-2.25-5-5v-12c0-2.75,2.25-5,5-5h12c2.75,0,5,2.25,5,5
		V65.801z"/>
</g>
<g>
	<path fill="#1B456B" d="M246.619,65.459l-0.019,0.18c-0.433,0.162-0.864,0.27-1.333,0.324l-0.197-0.126
		c-0.937-1.404-1.837-2.863-2.646-4.321h-2.107V62.2l0.072,3.601h-1.459l0.091-3.475l-0.091-8.066l3.529-0.018
		c2.251,0,3.547,1.17,3.547,3.295c0,1.603-0.882,2.899-2.376,3.601C244.53,62.614,245.538,64.037,246.619,65.459z M242.496,60.346
		c1.313-0.378,2.016-1.278,2.016-2.683c0-1.494-0.828-2.178-2.377-2.232l-1.746,0.054l-0.054,4.807L242.496,60.346z"/>
</g>
</svg>
